<svg width="40" height="40" viewBox="0 0 40 40" fill="none" xmlns="http://www.w3.org/2000/svg">
<circle cx="20" cy="20" r="18" fill="#FF5648" stroke="#F5F9F9" stroke-width="4"/>
<path d="M15.3035 15.0756C16.2163 14.6277 17.6794 14.0937 19.4662 14.0937C20.6875 14.0937 21.8652 14.3863 22.9769 14.964C21.4086 15.2604 20.2186 16.6414 20.2186 18.2956C20.2186 19.201 20.5717 20.0499 21.2128 20.6857C21.8515 21.3192 22.7018 21.668 23.6071 21.668C24.5124 21.668 25.3627 21.3192 26.0014 20.6857C26.6425 20.0499 26.9955 19.2011 26.9955 18.2956C26.9955 17.3796 26.6305 16.5474 26.0385 15.9366L26.0387 15.9364C26.0129 15.9059 25.3947 15.1805 24.2806 14.459C22.8067 13.5045 21.1419 13 19.4661 13C17.4521 13 15.8089 13.6046 14.7851 14.1118C13.6694 14.6645 13.0268 15.2218 13 15.2452L13.7185 16.0694C13.7243 16.0645 14.3041 15.5659 15.3035 15.0756ZM23.6071 20.5742C22.3414 20.5742 21.3117 19.552 21.3117 18.2956C21.3117 17.0291 22.3414 15.9987 23.6071 15.9987C24.8728 15.9987 25.9025 17.0291 25.9025 18.2956C25.9025 19.552 24.8728 20.5742 23.6071 20.5742ZM26.2815 23.9305C26.2757 23.9355 25.6959 24.434 24.6965 24.9244C23.7837 25.3723 22.3206 25.9062 20.5338 25.9062C19.3199 25.9062 18.1452 25.6132 17.0315 25.0344C18.5956 24.7346 19.7814 23.3556 19.7814 21.7044C19.7814 20.799 19.4283 19.9501 18.7872 19.3143C18.1485 18.6808 17.2982 18.332 16.3929 18.332C15.4876 18.332 14.6373 18.6808 13.9986 19.3143C13.3575 19.9501 13.0044 20.7989 13.0044 21.7044C13.0044 22.6025 13.3553 23.42 13.9269 24.0273L13.9263 24.0278C13.9524 24.0587 14.5787 24.7922 15.7007 25.5223C17.1864 26.489 18.8577 27 20.5338 27C22.5479 27 24.191 26.3954 25.2149 25.8882C26.3306 25.3355 26.9732 24.7782 27 24.7548L26.2815 23.9305ZM16.3929 19.4258C17.6586 19.4258 18.6883 20.448 18.6883 21.7044C18.6883 22.9709 17.6586 24.0013 16.3929 24.0013C15.1272 24.0013 14.0975 22.9709 14.0975 21.7044C14.0975 20.448 15.1272 19.4258 16.3929 19.4258Z" fill="white"/>
</svg>
